Land_normalized_Motion_pl01
version=1
nRows=23
nColumns=43
inDegrees=yes
endheader
time		pelvis_tilt		pelvis_list		pelvis_rotation		pelvis_tx		pelvis_ty		pelvis_tz		hip_flexion_r		hip_adduction_r		hip_rotation_r		knee_angle_r		ankle_angle_r		subtalar_angle_r		mtp_angle_r		hip_flexion_l		hip_adduction_l		hip_rotation_l		knee_angle_l		ankle_angle_l		subtalar_angle_l		mtp_angle_l		lumbar_extension		lumbar_bending		lumbar_rotation		neck_flexion		neck_lateral_bending		neck_rotation		arm_flex_r		arm_add_r		arm_rot_r		elbow_flex_r		pro_sup_r		wrist_flex_r		wrist_dev_r		hand_finger_flex_r		arm_flex_l		arm_add_l		arm_rot_l		elbow_flex_l		pro_sup_l		wrist_flex_l		wrist_dev_l		hand_finger_flex_l		
0.911667		-0.943070		15.640712		91.423045		-0.033054		0.671047		0.512473		49.056562		-3.722647		-0.637021		-96.377280		18.049434		-2.716885		14.332293		45.816245		0.011211		-3.317051		-94.532889		22.079188		-20.091556		14.427754		-62.759537		-1.517161		-5.774344		5.431307		1.823058		-2.782952		0.517420		-24.534892		-7.451512		40.486882		94.683140		-22.972970		2.709452		33.203529		1.203296		-26.024969		-23.859565		51.276793		118.742852		-28.983021		4.460747		74.435286		
0.914596		-1.050907		15.454058		91.452694		-0.033165		0.664249		0.511552		50.357461		-3.700674		-0.326798		-97.960245		17.260342		-2.860337		16.321544		46.971843		0.102892		-3.427470		-96.071467		21.605336		-20.357757		15.403804		-63.322890		-1.596188		-5.780590		6.419271		1.935155		-2.936778		2.783635		-24.618142		-7.063188		41.486173		94.884279		-23.857154		2.329236		34.805071		3.644803		-26.151386		-23.481526		52.006466		119.791429		-29.750605		4.743118		76.624869		
0.917525		-1.087758		15.486989		91.513009		-0.033404		0.658346		0.510629		51.286399		-3.663909		-0.111902		-99.398760		16.944428		-2.894895		16.791559		47.772068		0.192927		-3.441389		-97.439202		21.578741		-20.433831		15.663954		-64.119329		-1.568823		-5.794577		7.454640		2.006553		-3.114369		5.176843		-24.779930		-6.555192		42.465203		95.077733		-23.987874		2.129291		35.170081		6.042731		-26.324345		-22.994268		52.728510		120.032934		-29.900861		4.688444		77.069844		
0.920455		-1.144081		15.177525		91.478792		-0.033470		0.651487		0.509706		52.751749		-3.576780		0.220305		-100.936110		16.245888		-2.866307		17.279118		49.064802		0.246033		-3.499596		-98.934172		21.214374		-20.608351		15.938622		-64.454566		-1.653896		-5.738288		8.200485		2.054422		-3.464437		7.347327		-25.102059		-5.717137		43.647880		95.124453		-24.259176		1.861692		35.546472		8.351800		-26.632284		-22.045032		53.495176		120.342500		-30.079226		4.794039		77.610116		
0.923384		-1.173625		14.839166		91.435233		-0.033537		0.644969		0.508882		54.162127		-3.477312		0.524082		-102.323268		15.718209		-2.818764		18.137853		50.353508		0.298977		-3.543453		-100.326543		20.808757		-20.938091		16.392809		-64.759529		-1.743271		-5.623264		8.949648		2.136525		-3.635104		9.678259		-25.304786		-5.028749		44.526536		94.798310		-24.770576		1.555117		36.171862		10.859596		-26.821788		-21.106928		54.097031		120.698461		-30.514380		5.123058		78.443708		
0.926313		-1.138449		14.829491		91.419950		-0.033676		0.639243		0.508045		55.144706		-3.383526		0.751282		-103.637166		15.187949		-2.549716		18.426757		51.253815		0.328119		-3.482106		-101.688161		20.448016		-20.961155		16.545679		-65.401335		-1.739049		-5.522425		9.684349		2.205611		-3.724649		12.030539		-25.628486		-4.186609		45.551161		94.856871		-24.720606		1.325719		36.459360		13.200752		-27.132517		-20.033084		54.888444		120.960554		-30.507720		5.137911		78.711356		
0.929242		-1.102189		14.737947		91.388553		-0.033767		0.633549		0.507291		56.175463		-3.281884		0.972291		-104.866261		14.754066		-2.304138		18.732128		52.233113		0.345743		-3.423039		-102.999838		20.094978		-21.022343		16.698806		-65.945450		-1.752941		-5.407731		10.415168		2.244681		-3.811154		14.441066		-25.910434		-3.367849		46.475973		94.871683		-24.698673		1.112210		36.733413		15.616325		-27.419471		-18.898870		55.583362		121.228997		-30.479058		5.219789		78.966137		
0.932172		-1.083116		14.484915		91.361400		-0.033863		0.627301		0.506549		57.427486		-3.207173		1.213608		-106.109602		14.017300		-2.160368		21.152824		53.432834		0.379129		-3.373745		-104.330605		19.484582		-21.454460		18.117353		-66.258046		-1.808420		-5.189506		10.979023		2.337493		-4.068648		16.694400		-26.485137		-1.799417		47.448364		93.424935		-26.104352		0.542893		38.478682		18.162693		-27.837135		-16.964970		56.261399		121.585261		-31.603156		6.446778		80.313511		
0.935101		-1.005412		14.408529		91.323097		-0.033875		0.621684		0.505822		58.382195		-3.071803		1.423502		-107.248837		13.621125		-1.792593		21.641848		54.383968		0.310145		-3.298935		-105.602165		19.097398		-21.338741		18.418036		-66.740210		-1.797802		-5.058662		11.460476		2.351921		-4.133732		19.133117		-26.857943		-0.676968		48.367713		93.545741		-26.072408		0.381075		38.906085		20.545042		-28.265563		-15.484913		56.906770		121.847531		-31.479618		6.441807		80.570940		
0.938030		-0.951581		14.284231		91.324528		-0.033956		0.616097		0.505124		59.336265		-2.987860		1.598705		-108.350896		13.396738		-1.430931		21.845280		55.329635		0.245149		-3.234667		-106.774473		18.908278		-21.168546		18.584439		-67.172674		-1.767047		-4.931459		12.008131		2.326016		-4.193097		21.561151		-27.230785		0.329680		49.263992		93.780703		-25.903838		0.284830		39.070622		22.986100		-28.670418		-13.918393		57.543224		122.120755		-31.151102		6.448359		80.607071		
0.940960		-0.922066		14.135952		91.358756		-0.034063		0.610532		0.504439		60.286215		-2.955059		1.771822		-109.404034		13.241255		-1.063753		22.093258		56.256014		0.159972		-3.187098		-107.882977		18.800083		-20.924475		18.817714		-67.570477		-1.724012		-4.816670		12.540135		2.290782		-4.274577		23.972541		-27.646601		1.396628		50.161862		93.933621		-25.822634		0.227360		39.222120		25.457350		-29.084555		-12.218013		58.179965		122.416026		-30.838272		6.587426		80.615296		
0.943889		-0.909235		13.969028		91.419030		-0.034209		0.604993		0.503772		61.215189		-2.966222		1.935644		-110.414249		13.153418		-0.696793		22.366186		57.170212		0.085281		-3.166482		-108.938712		18.785500		-20.600788		19.106221		-67.938140		-1.666168		-4.728859		13.075248		2.252908		-4.357692		26.384355		-28.077312		2.550473		51.076019		94.052997		-25.814504		0.221588		39.369996		27.940141		-29.519229		-10.435502		58.810805		122.725945		-30.545725		6.785816		80.605593		
0.946818		-0.914231		13.763825		91.507642		-0.034420		0.599394		0.503084		62.160492		-3.025872		2.094306		-111.405429		13.138437		-0.335741		22.677906		58.097950		0.024758		-3.162024		-109.957692		18.865613		-20.207000		19.461249		-68.246396		-1.595704		-4.652872		13.586038		2.206124		-4.445221		28.793990		-28.540462		3.775702		51.968314		94.135131		-25.923021		0.278370		39.535456		30.436462		-29.933916		-8.583274		59.437086		123.025928		-30.286192		7.042683		80.587229		
0.949747		-0.917462		13.522674		91.606477		-0.034752		0.593916		0.502440		63.082026		-3.107032		2.243095		-112.310236		13.186688		-0.034945		22.969590		59.022034		-0.024785		-3.170427		-110.923927		19.004654		-19.824037		19.805867		-68.529966		-1.501161		-4.622127		14.146926		2.162619		-4.513149		31.241932		-28.990958		5.023362		52.867336		94.247551		-26.047665		0.346769		39.722330		32.929355		-30.342838		-6.762753		60.038955		123.328188		-30.042715		7.243970		80.571790		
0.952677		-0.932379		13.246178		91.715828		-0.035099		0.588215		0.501731		64.056426		-3.219865		2.369052		-113.250903		13.288188		0.248024		23.292809		59.978271		-0.052515		-3.173884		-111.891010		19.207614		-19.396016		20.192649		-68.715977		-1.408208		-4.567756		14.596837		2.119578		-4.599249		33.671242		-29.493669		6.383149		53.715228		94.356566		-26.289275		0.460424		39.969162		35.432420		-30.721100		-4.820895		60.607545		123.611100		-29.809368		7.488551		80.562910		
0.955606		-0.920580		12.932746		91.804782		-0.035543		0.582617		0.501101		65.026248		-3.316843		2.475701		-114.113255		13.394029		0.444213		23.917667		60.940520		-0.093274		-3.170741		-112.807711		19.450047		-18.935440		20.923601		-68.873736		-1.311732		-4.460312		15.082166		2.092343		-4.725444		36.130986		-30.041397		7.877132		54.534780		94.099619		-27.124425		0.527802		40.726307		38.003139		-31.045608		-2.745097		61.143723		123.721865		-29.844417		8.001294		80.555627		
0.958535		-0.882324		12.628408		91.865864		-0.035951		0.577157		0.500502		65.950611		-3.386462		2.542663		-114.914581		13.450900		0.528341		25.084138		61.859066		-0.169350		-3.147718		-113.680406		19.690506		-18.483530		22.269819		-69.041526		-1.228894		-4.301335		15.592038		2.077839		-4.894241		38.632369		-30.642813		9.651236		55.312400		93.261585		-28.856656		0.469356		42.424806		40.650640		-31.353745		-0.475815		61.631398		123.600430		-30.313457		8.874813		80.595439		
0.961465		-0.903560		12.360768		91.921671		-0.036413		0.571822		0.499808		66.827156		-3.527168		2.594929		-115.720468		13.684605		0.623871		25.226059		62.704465		-0.201595		-3.212778		-114.546204		19.969232		-18.271131		22.442459		-69.206453		-1.161833		-4.275043		15.995327		1.999048		-4.912934		41.202480		-31.038600		10.975987		55.904706		93.766749		-28.718808		0.411947		42.645327		43.153010		-31.605666		1.329249		62.031653		123.967830		-29.881528		8.674951		80.674821		
0.964394		-0.911275		12.084223		91.950605		-0.036894		0.566574		0.499151		67.692115		-3.643361		2.651251		-116.496032		13.917629		0.718033		25.368094		63.527222		-0.268279		-3.284484		-115.374576		20.328525		-17.939444		22.640327		-69.355134		-1.114896		-4.199913		16.382783		1.953400		-4.988646		43.752758		-31.437118		12.303399		56.489788		94.184736		-28.744026		0.347504		42.806818		45.705515		-31.812271		3.232190		62.393391		124.218500		-29.493956		8.626019		80.695834		
0.967323		-0.923865		11.820668		91.946928		-0.037301		0.561501		0.498487		68.530266		-3.756902		2.681613		-117.253465		14.146510		0.797437		25.502280		64.283800		-0.372403		-3.359911		-116.149296		20.758599		-17.529385		22.863288		-69.511580		-1.104581		-4.096744		16.749383		1.907762		-5.091351		46.312299		-31.825706		13.667347		57.018245		94.513455		-28.885809		0.254507		42.916038		48.292237		-31.984646		5.211718		62.709547		124.358971		-29.167249		8.677536		80.663914		
0.970253		-0.938303		11.582794		91.920610		-0.037631		0.556607		0.497829		69.325108		-3.858199		2.682252		-117.986522		14.355712		0.864212		25.615423		64.972351		-0.512323		-3.448282		-116.882101		21.253802		-17.033229		23.126972		-69.684223		-1.122097		-3.982099		17.094645		1.862714		-5.204665		48.883389		-32.175256		15.091040		57.468545		94.701305		-29.201460		0.107098		42.957484		50.893952		-32.127269		7.231525		62.983528		124.335274		-28.969232		8.822602		80.573057		
0.973182		-0.939059		11.365691		91.872151		-0.037876		0.551906		0.497214		70.067058		-3.912377		2.678421		-118.649567		14.534154		0.923826		25.714436		65.615306		-0.696908		-3.521289		-117.600784		21.846682		-16.323014		23.531701		-69.860931		-1.154453		-3.860547		17.384601		1.840719		-5.346849		51.487806		-32.475821		16.687766		57.834474		94.522789		-30.035263		-0.154731		42.953820		53.549587		-32.262580		9.378221		63.151921		123.913384		-29.107551		9.212424		80.380253		
0.976111		-0.942732		11.093791		91.829382		-0.038280		0.547209		0.496518		70.866983		-4.038233		2.621452		-119.332864		14.744549		0.918132		25.728802		66.290233		-0.840643		-3.648756		-118.276749		22.298333		-16.136004		23.699914		-70.019066		-1.145276		-3.789979		17.876912		1.743360		-5.351578		54.087526		-32.757200		18.091415		58.276153		94.760075		-30.020452		-0.332715		42.987352		55.966791		-32.396989		11.155665		63.542978		124.093048		-28.954382		9.093723		80.349040		
